<svg xmlns="http://www.w3.org/2000/svg" viewBox="0 0 87.78 94.17"><defs><style>.cls-1{fill:#d48200;}</style></defs><title>attorney-phone-icon</title><g id="Layer_2" data-name="Layer 2"><g id="Layer_1-2" data-name="Layer 1"><path class="cls-1" d="M61.47,94.17a36,36,0,0,1-12.24-2.24,54.66,54.66,0,0,1-13.58-7.47A84.45,84.45,0,0,1,27.94,78c-2.85-2.66-5.53-5.49-8.11-8.42-2.42-2.75-4.73-5.59-6.9-8.54A92.22,92.22,0,0,1,7.21,52.3,60.67,60.67,0,0,1,1.87,40.21,42.58,42.58,0,0,1,.31,33.15a34.41,34.41,0,0,1-.24-6.73A30.75,30.75,0,0,1,2.41,16.33,28.16,28.16,0,0,1,7,8.9,30.14,30.14,0,0,1,11.4,4.81c1.07-.83,2-1.78,3.06-2.66a8.15,8.15,0,0,1,4-2.07,5.64,5.64,0,0,1,3.83.74,13.78,13.78,0,0,1,3.81,3.41,67.35,67.35,0,0,1,4.45,6.55,42.6,42.6,0,0,1,2.72,4.73,16.89,16.89,0,0,1,1.59,4.89,8.4,8.4,0,0,1-2.16,7.27c-1,1.1-2.24,2-3.35,3.1s-2.4,1.82-3.59,2.75a7,7,0,0,0-2.67,3.82A8.37,8.37,0,0,0,23,41a19.71,19.71,0,0,0,2.38,6.09,55,55,0,0,0,5.81,8.23,84.26,84.26,0,0,0,7,7.62,33.07,33.07,0,0,0,7.19,5.43,10.81,10.81,0,0,0,5,1.45,6.4,6.4,0,0,0,4.32-1.54c.7-.59,1.3-1.29,2-1.92S58.14,65,58.9,64.3c1-.87,2-1.73,3-2.53a8.2,8.2,0,0,1,4.31-1.65,10,10,0,0,1,4.52.73A20.31,20.31,0,0,1,76,64q2.81,2.28,5.52,4.67c1.1,1,2.16,2,3.17,3a12.07,12.07,0,0,1,2.68,4.13,5.59,5.59,0,0,1-1,5.85,29.06,29.06,0,0,1-2.51,2.45c-.94.87-1.91,1.71-2.85,2.58a27.48,27.48,0,0,1-5.25,3.79,28.72,28.72,0,0,1-8.22,3.07A31.54,31.54,0,0,1,61.47,94.17Z"/></g></g></svg>