<svg xmlns="http://www.w3.org/2000/svg" viewBox="0 0 121 121"><defs><style>.cls-1{fill:#fff;}.cls-2{fill:#ccc;}.cls-3,.cls-4,.cls-5,.cls-6{fill:#d48200;stroke:#fff;stroke-miterlimit:10;}.cls-3{stroke-width:1.27px;}.cls-4{stroke-width:1.24px;}.cls-5{stroke-width:1.86px;}.cls-6{stroke-width:1.82px;}</style></defs><title>divorce-icon</title><g id="Layer_2" data-name="Layer 2"><g id="Layer_1-2" data-name="Layer 1"><circle class="cls-1" cx="60.5" cy="60.5" r="59"/><path class="cls-2" d="M60.5,3A57.5,57.5,0,1,1,3,60.5,57.56,57.56,0,0,1,60.5,3m0-3A60.5,60.5,0,1,0,121,60.5,60.5,60.5,0,0,0,60.5,0Z"/><g id="profile"><path class="cls-3" d="M22.52,69.37a19,19,0,1,1,38,0"/><circle class="cls-4" cx="41.5" cy="45.42" r="10.47"/></g><g id="profile-2" data-name="profile"><path class="cls-3" d="M62.52,69.37a19,19,0,0,1,38,0"/><circle class="cls-4" cx="81.5" cy="45.42" r="10.47"/></g><g id="profile-3" data-name="profile"><path class="cls-5" d="M33.52,83.37a27.81,27.81,0,0,1,55.61,0"/><circle class="cls-6" cx="61.32" cy="48.29" r="15.34"/></g></g></g></svg>