<svg xmlns="http://www.w3.org/2000/svg" viewBox="0 0 106 85.99"><defs><style>.cls-1{fill:#d48200;}</style></defs><title>email-icon</title><g id="Layer_2" data-name="Layer 2"><g id="Layer_1-2" data-name="Layer 1"><path class="cls-1" d="M53,52.52,43.8,44,4.1,83.64A10.76,10.76,0,0,0,10.82,86H95.18a10.76,10.76,0,0,0,6.72-2.35L62.17,43.92Z"/><path class="cls-1" d="M101.81,2.28A10.79,10.79,0,0,0,95.18,0H1.34L53,48.08Z"/><path class="cls-1" d="M0,3.19v72a10.82,10.82,0,0,0,1.88,6.1L41.42,41.73Z"/><path class="cls-1" d="M104.12,81.27a10.82,10.82,0,0,0,1.88-6.1V10.82a10.71,10.71,0,0,0-2-6.19L64.54,41.69Z"/></g></g></svg>