<svg xmlns="http://www.w3.org/2000/svg" viewBox="0 0 121 121"><defs><style>.cls-1{fill:#d48200;}.cls-2{fill:#fff;}</style></defs><title>phone-icon</title><g id="Layer_2" data-name="Layer 2"><g id="Layer_1-2" data-name="Layer 1"><circle class="cls-1" cx="60.5" cy="60.5" r="60.5"/><path class="cls-2" d="M70.83,88.17a21,21,0,0,1-7.19-1.32,32,32,0,0,1-8-4.39,48,48,0,0,1-4.53-3.78,67.38,67.38,0,0,1-4.77-4.94c-1.42-1.62-2.78-3.29-4-5a53.12,53.12,0,0,1-3.37-5.16,35.4,35.4,0,0,1-3.13-7.1,24.62,24.62,0,0,1-.92-4.15,20.14,20.14,0,0,1-.14-4,17.88,17.88,0,0,1,1.38-5.93,16.41,16.41,0,0,1,2.71-4.36,17.77,17.77,0,0,1,2.57-2.41c.62-.48,1.19-1,1.8-1.56a4.83,4.83,0,0,1,2.32-1.22,3.42,3.42,0,0,1,2.26.44,8.1,8.1,0,0,1,2.24,2,39.9,39.9,0,0,1,2.61,3.84A24.85,24.85,0,0,1,54.24,42a9.65,9.65,0,0,1,.93,2.87,5,5,0,0,1-1.26,4.27c-.61.65-1.32,1.21-2,1.82a25.8,25.8,0,0,1-2.12,1.62,4.1,4.1,0,0,0-1.56,2.24,4.88,4.88,0,0,0,0,2.15,11.59,11.59,0,0,0,1.39,3.58A33.3,33.3,0,0,0,53,65.34a48.48,48.48,0,0,0,4.12,4.47A19.08,19.08,0,0,0,61.38,73a6.34,6.34,0,0,0,2.95.85A3.75,3.75,0,0,0,66.86,73c.41-.34.77-.75,1.16-1.13s.86-.82,1.3-1.21,1.16-1,1.77-1.48a4.87,4.87,0,0,1,2.54-1,5.85,5.85,0,0,1,2.65.43,12.18,12.18,0,0,1,3.09,1.83c1.1.9,2.18,1.81,3.25,2.75.64.56,1.26,1.16,1.85,1.79a6.86,6.86,0,0,1,1.58,2.42,3.28,3.28,0,0,1-.6,3.44A18.18,18.18,0,0,1,84,82.26c-.55.51-1.12,1-1.68,1.51A16,16,0,0,1,79.22,86a16.48,16.48,0,0,1-4.83,1.8A18.17,18.17,0,0,1,70.83,88.17Z"/></g></g></svg>